<?xml version="1.0" encoding="UTF-8" standalone="no"?>
<!-- Created with Inkscape (http://www.inkscape.org/) -->

<svg
   xmlns:dc="http://purl.org/dc/elements/1.1/"
   xmlns:cc="http://creativecommons.org/ns#"
   xmlns:rdf="http://www.w3.org/1999/02/22-rdf-syntax-ns#"
   xmlns:svg="http://www.w3.org/2000/svg"
   xmlns="http://www.w3.org/2000/svg"
   xmlns:sodipodi="http://sodipodi.sourceforge.net/DTD/sodipodi-0.dtd"
   xmlns:inkscape="http://www.inkscape.org/namespaces/inkscape"
   width="512"
   height="512"
   viewBox="0 0 135.46666 135.46667"
   version="1.1"
   id="svg1405"
   inkscape:version="0.92.4 (5da689c313, 2019-01-14)"
   sodipodi:docname="favicon.svg">
  <defs
     id="defs1399" />
  <sodipodi:namedview
     id="base"
     pagecolor="#3cbfc5"
     bordercolor="#666666"
     borderopacity="1.0"
     inkscape:pageopacity="1"
     inkscape:pageshadow="2"
     inkscape:zoom="0.90509668"
     inkscape:cx="222.21257"
     inkscape:cy="47.289145"
     inkscape:document-units="mm"
     inkscape:current-layer="layer1"
     showgrid="false"
     units="px"
     inkscape:window-width="2160"
     inkscape:window-height="1346"
     inkscape:window-x="-11"
     inkscape:window-y="-11"
     inkscape:window-maximized="1" />
  <metadata
     id="metadata1402">
    <rdf:RDF>
      <cc:Work
         rdf:about="">
        <dc:format>image/svg+xml</dc:format>
        <dc:type
           rdf:resource="http://purl.org/dc/dcmitype/StillImage" />
        <dc:title />
      </cc:Work>
    </rdf:RDF>
  </metadata>
  <g
     inkscape:label="Layer 1"
     inkscape:groupmode="layer"
     id="layer1"
     transform="translate(0,-161.53332)">
    <g
       id="g816"
       transform="matrix(1.1476643,0,0,1.1476643,-10.001795,-33.854493)">
      <path
         id="path4697"
         d="m 75.823424,188.77953 c -0.500604,2.39763 -1.852283,4.92021 -3.862318,7.59228 -2.159646,2.87096 -5.081917,5.86833 -8.19787,8.93289 0.515881,1.32246 1.058839,2.68022 1.626239,4.06892 3.672478,-3.57283 7.243418,-7.1319 9.978602,-10.76796 2.340328,-3.11115 4.115974,-6.34311 4.660259,-9.70012 a 4.1635884,3.8871172 0 0 1 -4.204912,-0.12601 z M 57.306526,211.6672 c -7.554401,7.43155 -14.734628,15.36759 -14.630189,24.56686 0.17025,14.99732 12.957062,24.92921 25.053293,24.92921 2.830475,0 5.620725,-0.37163 8.263466,-1.10782 -0.236918,-1.20652 -0.533618,-2.47763 -0.891182,-3.79917 -2.315126,0.67442 -4.806335,1.02026 -7.372284,1.02026 -9.62286,0 -20.743702,-8.13832 -20.890665,-21.08399 -0.07631,-6.7222 5.464643,-13.61009 12.168062,-20.45441 -0.581288,-1.3704 -1.15246,-2.73116 -1.700501,-4.07094 z m 14.967361,8.95567 c -0.702527,0.0158 -1.389831,0.0757 -2.063699,0.17055 0.534076,1.24196 1.071135,2.49025 1.609976,3.743 0.183595,-0.0126 0.36736,-0.0242 0.55401,-0.0283 8.416081,-0.18922 16.517156,6.46319 16.247208,14.3728 -0.208084,6.09704 -2.530084,10.44041 -6.024671,13.43705 0.155569,0.52406 0.307452,1.04532 0.451008,1.56127 0.244362,0.87824 0.474083,1.74364 0.68573,2.59671 0.360142,-0.24777 0.715102,-0.5028 1.057599,-0.77532 4.658042,-3.70623 7.741585,-9.37781 7.99134,-16.69572 0.354185,-10.37789 -9.724298,-18.62446 -20.508501,-18.382 z m -9.825194,3.08711 c -6.965634,4.60947 -10.20245,13.61412 -5.597514,21.4924 a 2.0817942,1.9435586 0 1 0 3.654156,-1.86189 c -3.41235,-5.83796 -1.319836,-12.3492 3.53436,-15.98164 -0.530897,-1.21904 -1.06162,-2.43611 -1.591002,-3.64887 z"
         style="color:#000000;font-style:normal;font-variant:normal;font-weight:normal;font-stretch:normal;font-size:medium;line-height:normal;font-family:sans-serif;text-indent:0;text-align:start;text-decoration:none;text-decoration-line:none;text-decoration-style:solid;text-decoration-color:#000000;letter-spacing:normal;word-spacing:normal;text-transform:none;writing-mode:lr-tb;direction:ltr;baseline-shift:baseline;text-anchor:start;white-space:normal;clip-rule:nonzero;display:inline;overflow:visible;visibility:visible;opacity:1;isolation:auto;mix-blend-mode:normal;color-interpolation:sRGB;color-interpolation-filters:linearRGB;solid-color:#000000;solid-opacity:1;fill:#ffffff;fill-opacity:1;fill-rule:evenodd;stroke:none;stroke-width:4.01171112;stroke-linecap:round;stroke-linejoin:miter;stroke-miterlimit:4;stroke-dasharray:none;stroke-dashoffset:0;stroke-opacity:1;color-rendering:auto;image-rendering:auto;shape-rendering:auto;text-rendering:auto;enable-background:accumulate"
         inkscape:connector-curvature="0" />
      <path
         style="display:inline;fill:none;fill-rule:evenodd;stroke:#ffffff;stroke-width:4.02257633;stroke-linecap:round;stroke-linejoin:miter;stroke-miterlimit:4;stroke-dasharray:none;stroke-opacity:0.95890407"
         d="m 78.039596,185.44606 c -1.786584,-14.09571 -26.079748,-12.784 -22.972124,5.8491 3.372291,20.22005 30.466704,64.06412 25.181618,79.8592 -5.28508,15.79507 -28.744486,15.17352 -31.328334,-1.56737"
         id="path4711"
         inkscape:connector-curvature="0"
         sodipodi:nodetypes="cssc" />
    </g>
  </g>
</svg>
