<?xml version="1.0" encoding="UTF-8" standalone="no"?>
<!-- Created with Inkscape (http://www.inkscape.org/) -->

<svg
   xmlns:dc="http://purl.org/dc/elements/1.1/"
   xmlns:cc="http://creativecommons.org/ns#"
   xmlns:rdf="http://www.w3.org/1999/02/22-rdf-syntax-ns#"
   xmlns:svg="http://www.w3.org/2000/svg"
   xmlns="http://www.w3.org/2000/svg"
   xmlns:sodipodi="http://sodipodi.sourceforge.net/DTD/sodipodi-0.dtd"
   xmlns:inkscape="http://www.inkscape.org/namespaces/inkscape"
   width="210mm"
   height="297mm"
   viewBox="0 0 744.09448819 1052.3622047"
   id="svg4142"
   version="1.1"
   inkscape:version="0.91 r13725"
   sodipodi:docname="logo.svg">
  <defs
     id="defs4144" />
  <sodipodi:namedview
     id="base"
     pagecolor="#ffffff"
     bordercolor="#7e7e7e"
     borderopacity="1"
     inkscape:pageopacity="0"
     inkscape:pageshadow="2"
     inkscape:zoom="0.67178375"
     inkscape:cx="190.34781"
     inkscape:cy="547.95067"
     inkscape:document-units="px"
     inkscape:current-layer="g4736"
     showgrid="false"
     inkscape:window-width="1440"
     inkscape:window-height="897"
     inkscape:window-x="-8"
     inkscape:window-y="-8"
     inkscape:window-maximized="1"
     showguides="true"
     inkscape:guide-bbox="true" />
  <metadata
     id="metadata4147">
    <rdf:RDF>
      <cc:Work
         rdf:about="">
        <dc:format>image/svg+xml</dc:format>
        <dc:type
           rdf:resource="http://purl.org/dc/dcmitype/StillImage" />
        <dc:title />
      </cc:Work>
    </rdf:RDF>
  </metadata>
  <g
     inkscape:groupmode="layer"
     id="layer2"
     inkscape:label="Treble Clef"
     style="display:inline" />
  <g
     inkscape:groupmode="layer"
     id="layer3"
     inkscape:label="S"
     style="display:inline">
    <g
       id="g4736"
       transform="translate(-140.5751,146.18738)">
      <g
         id="g5899">
        <path
           transform="translate(140.5751,-146.18738)"
           id="path4697"
           d="m 239.22656,369.91016 c -1.80369,9.25312 -6.67382,18.9885 -13.91601,29.30078 -7.78126,11.07984 -18.31026,22.64756 -29.53711,34.47461 1.85873,5.10373 3.81502,10.34373 5.85937,15.70312 13.23203,-13.78859 26.0982,-27.52406 35.95313,-41.55664 8.43225,-12.00682 14.82994,-24.4799 16.79101,-37.43555 a 15.0015,15.0015 0 0 1 -15.15039,-0.48632 z m -66.71679,88.33007 c -27.21867,28.68048 -53.08918,59.30793 -52.71289,94.81055 0.61342,57.879 46.68458,96.20899 90.26757,96.20899 10.19826,0 20.25159,-1.43421 29.77344,-4.27539 -0.85362,-4.65631 -1.92263,-9.5619 -3.21094,-14.66211 -8.34145,2.6028 -17.31733,3.9375 -26.5625,3.9375 -34.67138,0 -74.74002,-31.4081 -75.26953,-81.36915 -0.27495,-25.94293 19.68923,-52.52526 43.8418,-78.93945 -2.0944,-5.28877 -4.15235,-10.54034 -6.12695,-15.71094 z m 53.92773,34.5625 c -2.53122,0.061 -5.00758,0.2922 -7.43555,0.65821 1.92429,4.7931 3.85932,9.61061 5.80078,14.44531 0.6615,-0.0485 1.32361,-0.0932 1.9961,-0.10937 30.32334,-0.73024 59.51168,24.94332 58.53906,55.46874 -0.74974,23.53024 -9.11595,40.29256 -21.70703,51.85743 0.56052,2.02249 1.10776,4.03419 1.625,6.02539 0.88043,3.3894 1.70812,6.72922 2.4707,10.02148 1.29759,-0.95624 2.57653,-1.94048 3.81055,-2.99219 16.78303,-14.30342 27.8931,-36.19168 28.79297,-64.43359 1.27614,-40.05123 -35.03686,-71.87711 -73.89258,-70.94141 z m -35.40039,11.91407 c -25.09733,17.78924 -36.75965,52.54076 -20.16797,82.94531 a 7.50075,7.50075 0 1 0 13.16602,-7.18555 c -12.29479,-22.53038 -4.7554,-47.65911 12.73437,-61.67773 -1.91283,-4.70464 -3.82504,-9.40165 -5.73242,-14.08203 z"
           style="display:inline;color:#000000;font-style:normal;font-variant:normal;font-weight:normal;font-stretch:normal;font-size:medium;line-height:normal;font-family:sans-serif;text-indent:0;text-align:start;text-decoration:none;text-decoration-line:none;text-decoration-style:solid;text-decoration-color:#000000;letter-spacing:normal;word-spacing:normal;text-transform:none;direction:ltr;block-progression:tb;writing-mode:lr-tb;baseline-shift:baseline;text-anchor:start;white-space:normal;clip-rule:nonzero;overflow:visible;visibility:visible;opacity:1;isolation:auto;mix-blend-mode:normal;color-interpolation:sRGB;color-interpolation-filters:linearRGB;solid-color:#000000;solid-opacity:1;fill:#e5e5e5;fill-opacity:1;fill-rule:evenodd;stroke:none;stroke-width:15;stroke-linecap:round;stroke-linejoin:miter;stroke-miterlimit:4;stroke-dasharray:none;stroke-dashoffset:0;stroke-opacity:1;color-rendering:auto;image-rendering:auto;shape-rendering:auto;text-rendering:auto;enable-background:accumulate"
           inkscape:connector-curvature="0" />
        <path
           transform="translate(140.5751,-146.18738)"
           style="display:inline;fill:none;fill-rule:evenodd;stroke:#3cbfc5;stroke-width:15;stroke-linecap:round;stroke-linejoin:miter;stroke-miterlimit:4;stroke-dasharray:none;stroke-opacity:1"
           d="m 247.21148,357.04533 c -6.43711,-54.39938 -93.9659,-49.33711 -82.76907,22.57337 12.15044,78.03495 109.7722,247.24182 90.72993,308.19955 -19.04227,60.95773 -103.56702,58.55897 -112.87668,-6.04892"
           id="path4711"
           inkscape:connector-curvature="0"
           sodipodi:nodetypes="cssc" />
        <text
           xml:space="preserve"
           style="font-style:normal;font-weight:normal;font-size:53.17401505px;line-height:125%;font-family:sans-serif;letter-spacing:0px;word-spacing:0px;fill:#3cbfc5;fill-opacity:1;stroke:none;stroke-width:1px;stroke-linecap:butt;stroke-linejoin:miter;stroke-opacity:1"
           x="455.0733"
           y="289.66287"
           id="text4714"
           sodipodi:linespacing="125%"><tspan
             sodipodi:role="line"
             x="455.0733"
             y="289.66287"
             id="tspan4718"
             style="font-style:normal;font-variant:normal;font-weight:bold;font-stretch:normal;font-size:119.6415329px;font-family:Quicksand;-inkscape-font-specification:'Quicksand Bold';fill:#3cbfc5;fill-opacity:1">peak</tspan></text>
        <text
           sodipodi:linespacing="125%"
           id="text4724"
           y="415.6629"
           x="455.0733"
           style="font-style:normal;font-weight:normal;font-size:53.17401505px;line-height:125%;font-family:sans-serif;letter-spacing:0px;word-spacing:0px;fill:#3cbfc5;fill-opacity:1;stroke:none;stroke-width:1px;stroke-linecap:butt;stroke-linejoin:miter;stroke-opacity:1"
           xml:space="preserve"><tspan
             id="tspan4728"
             y="415.6629"
             x="455.0733"
             sodipodi:role="line"
             style="font-style:normal;font-variant:normal;font-weight:bold;font-stretch:normal;font-size:119.6415329px;font-family:Quicksand;-inkscape-font-specification:'Quicksand Bold';fill:#3cbfc5;fill-opacity:1">ing</tspan></text>
        <text
           xml:space="preserve"
           style="font-style:normal;font-weight:normal;font-size:53.17401505px;line-height:125%;font-family:sans-serif;letter-spacing:0px;word-spacing:0px;fill:#3cbfc5;fill-opacity:1;stroke:none;stroke-width:1px;stroke-linecap:butt;stroke-linejoin:miter;stroke-opacity:1"
           x="451.0733"
           y="541.6629"
           id="text5877"
           sodipodi:linespacing="125%"><tspan
             style="font-style:normal;font-variant:normal;font-weight:bold;font-stretch:normal;font-size:119.6415329px;font-family:Quicksand;-inkscape-font-specification:'Quicksand Bold';fill:#3cbfc5;fill-opacity:1"
             sodipodi:role="line"
             x="451.0733"
             y="541.6629"
             id="tspan5879">tudio</tspan></text>
      </g>
    </g>
    <flowRoot
       xml:space="preserve"
       id="flowRoot5307"
       style="fill:black;stroke:none;stroke-opacity:1;stroke-width:1px;stroke-linejoin:miter;stroke-linecap:butt;fill-opacity:1;font-family:sans-serif;font-style:normal;font-weight:normal;font-size:40px;line-height:125%;letter-spacing:0px;word-spacing:0px"><flowRegion
         id="flowRegion5309"><rect
           id="rect5311"
           width="93.780174"
           height="261.98907"
           x="507.60382"
           y="894.57336" /></flowRegion><flowPara
         id="flowPara5313"></flowPara></flowRoot>  </g>
</svg>
