<?xml version="1.0" standalone="no"?>
<!DOCTYPE svg PUBLIC "-//W3C//DTD SVG 20010904//EN"
 "http://www.w3.org/TR/2001/REC-SVG-20010904/DTD/svg10.dtd">
<svg version="1.0" xmlns="http://www.w3.org/2000/svg"
 width="700.000000pt" height="700.000000pt" viewBox="0 0 700.000000 700.000000"
 preserveAspectRatio="xMidYMid meet">
<metadata>
Created by potrace 1.11, written by Peter Selinger 2001-2013
</metadata>
<g transform="translate(0.000000,700.000000) scale(0.100000,-0.100000)"
fill="#000000" stroke="none">
<path d="M3304 6345 c-121 -26 -202 -61 -294 -126 -135 -97 -237 -260 -266
-424 -4 -22 -8 -49 -10 -60 -2 -11 -4 -63 -4 -115 0 -85 4 -122 24 -225 4 -16
11 -52 16 -80 6 -27 17 -72 25 -100 42 -144 78 -261 84 -270 3 -5 6 -14 7 -20
2 -12 71 -202 83 -230 5 -11 28 -69 52 -130 35 -93 106 -266 139 -340 37 -86
51 -120 80 -190 19 -44 37 -84 42 -89 4 -6 8 -16 8 -22 0 -7 15 -45 34 -86 18
-40 48 -107 66 -148 18 -41 40 -93 50 -115 10 -22 48 -112 85 -200 36 -88 72
-173 80 -190 7 -16 34 -82 60 -145 25 -63 52 -128 60 -145 7 -16 20 -48 28
-70 8 -22 31 -85 52 -140 64 -172 145 -414 145 -433 0 -10 3 -22 7 -26 10 -10
76 -263 88 -336 36 -217 39 -390 11 -495 -19 -68 -83 -200 -118 -241 -107
-130 -208 -205 -338 -252 -98 -36 -159 -48 -261 -51 -246 -7 -476 105 -598
291 -21 32 -40 56 -42 53 -3 -2 -5 4 -6 13 0 9 -12 49 -26 88 -15 40 -29 87
-32 105 -14 84 -56 125 -121 116 -60 -8 -95 -58 -87 -122 3 -32 21 -110 31
-135 3 -8 6 -17 7 -20 6 -27 49 -128 59 -140 6 -8 21 -32 31 -53 11 -20 23
-37 27 -37 3 0 9 -8 12 -18 5 -15 76 -90 136 -144 78 -70 250 -154 375 -183
101 -23 316 -26 405 -6 110 26 221 65 262 93 14 10 30 18 35 18 6 0 41 22 79
49 138 98 263 250 319 389 15 37 32 76 37 87 5 12 10 27 12 35 1 8 5 24 8 35
20 64 28 272 14 385 -6 52 -28 184 -41 240 -3 14 -8 38 -11 54 -2 16 -7 32 -9
36 -2 4 -7 20 -9 36 -3 16 -15 61 -27 99 -11 39 -24 84 -28 100 -12 45 -103
318 -112 335 -4 8 -27 67 -50 130 -54 149 -158 408 -218 542 -12 26 -21 50
-21 53 0 3 -9 24 -19 48 -51 113 -101 228 -101 232 0 3 -9 24 -20 48 -26 57
-122 278 -176 407 -24 58 -48 114 -53 125 -35 79 -41 94 -41 99 0 3 -12 31
-26 63 -73 163 -228 561 -239 618 -3 11 -9 29 -14 40 -16 34 -50 149 -81 278
-67 272 -57 448 35 592 37 58 121 145 141 145 3 0 18 9 32 19 15 10 32 20 37
21 19 5 40 12 63 21 43 17 197 23 264 9 188 -37 330 -168 368 -340 18 -86 29
-107 65 -124 41 -20 58 -20 96 0 42 21 62 72 50 124 -5 22 -9 41 -9 43 0 11
-26 96 -35 112 -6 11 -12 25 -13 31 -1 7 -18 36 -37 67 -85 133 -225 232 -394
278 -94 26 -251 32 -339 14z"/>
<path d="M3914 5572 c-60 -203 -191 -393 -461 -672 -179 -185 -170 -148 -86
-339 l15 -35 146 150 c234 238 342 364 440 514 75 114 144 267 158 350 3 14 7
31 9 38 4 10 0 10 -17 1 -33 -18 -114 -19 -159 -4 -36 13 -40 13 -45 -3z"/>
<path d="M2844 4293 c-264 -268 -437 -497 -529 -699 -20 -43 -40 -86 -45 -95
-25 -48 -62 -236 -64 -326 -14 -567 364 -1082 924 -1261 52 -17 115 -33 140
-37 25 -4 65 -11 90 -15 101 -20 388 2 528 40 l40 10 -15 63 c-8 34 -17 74
-20 90 -3 15 -9 30 -14 33 -5 3 -44 -2 -86 -11 -223 -47 -434 -39 -616 24
-293 101 -545 331 -665 607 -100 230 -116 476 -44 684 69 199 254 461 513 726
l69 71 -42 102 c-23 55 -45 101 -50 101 -4 0 -56 -48 -114 -107z"/>
<path d="M3657 3942 c-20 -2 -27 -8 -23 -18 3 -8 22 -52 41 -98 l36 -83 52 2
c47 1 88 -4 172 -19 90 -16 220 -72 305 -129 231 -157 350 -378 336 -623 -14
-244 -96 -445 -245 -603 -34 -36 -61 -66 -61 -68 0 -7 53 -198 56 -202 6 -7
102 70 160 131 202 209 309 490 307 804 -2 221 -92 422 -268 598 -161 160
-364 260 -610 302 -37 7 -220 11 -258 6z"/>
<path d="M3153 3732 c-208 -173 -328 -414 -325 -656 1 -185 81 -404 160 -442
44 -21 101 -6 131 33 28 34 26 67 -5 128 -46 91 -65 165 -70 265 -2 53 1 113
7 134 6 21 12 46 14 55 23 103 124 254 220 329 l25 20 -38 88 c-22 48 -44 90
-49 91 -6 2 -37 -18 -70 -45z"/>
</g>
</svg>
